<svg xmlns="http://www.w3.org/2000/svg" version="1.1" xmlns:xlink="http://www.w3.org/1999/xlink" xmlns:svgjs="http://svgjs.dev/svgjs" width="1000" height="169" viewBox="0 0 1000 169"><g transform="matrix(1,0,0,1,-0.6059985865028921,-0.3606321073164622)"><svg viewBox="0 0 396 67" data-background-color="#ffffff" preserveAspectRatio="xMidYMid meet" height="169" width="1000" xmlns="http://www.w3.org/2000/svg" xmlns:xlink="http://www.w3.org/1999/xlink"><g id="tight-bounds" transform="matrix(1,0,0,1,0.24002455974488157,0.14318251467580012)"><svg viewBox="0 0 395.52 66.713634955383" height="66.713634955383" width="395.52"><g><svg viewBox="0 0 519.7678721814011 87.67092457080847" height="66.713634955383" width="395.52"><g><rect width="5.720878765694402" height="76.12526011937058" x="103.55087099242299" y="5.772832225718943" fill="#1a1b4b" opacity="1" stroke-width="0" stroke="transparent" fill-opacity="1" class="rect-r$-0" data-fill-palette-color="primary" rx="1%" id="r$-0" data-palette-color="#1a1b4b"></rect></g><g transform="matrix(1,0,0,1,124.24787218140116,12.116603902333157)"><svg viewBox="0 0 395.52 63.43771676614215" height="63.43771676614215" width="395.52"><g id="textblocktransform"><svg viewBox="0 0 395.52 63.43771676614215" height="63.43771676614215" width="395.52" id="textblock"><g><svg viewBox="0 0 395.52 63.43771676614215" height="63.43771676614215" width="395.52"><g transform="matrix(1,0,0,1,0,0)"><svg width="395.52" viewBox="0.9 -36.55 230.35999999999999 36.949999999999996" height="63.43771676614215" data-palette-color="#1a1b4b"><path d="M24.68-32.75L23.03-29.58Q22.75-29.03 22.39-28.8 22.03-28.58 21.53-28.58L21.53-28.58Q21.03-28.58 20.4-28.96 19.78-29.35 18.93-29.83 18.07-30.3 16.94-30.69 15.8-31.08 14.25-31.08L14.25-31.08Q12.85-31.08 11.81-30.74 10.78-30.4 10.06-29.8 9.35-29.2 9-28.36 8.65-27.53 8.65-26.53L8.65-26.53Q8.65-25.25 9.36-24.4 10.08-23.55 11.25-22.95 12.43-22.35 13.93-21.88 15.43-21.4 16.99-20.86 18.55-20.33 20.05-19.61 21.55-18.9 22.73-17.81 23.9-16.73 24.61-15.15 25.33-13.58 25.33-11.33L25.33-11.33Q25.33-8.88 24.49-6.74 23.65-4.6 22.04-3.01 20.43-1.43 18.1-0.51 15.78 0.4 12.78 0.4L12.78 0.4Q11.05 0.4 9.38 0.06 7.7-0.28 6.16-0.9 4.63-1.53 3.29-2.4 1.95-3.28 0.9-4.35L0.9-4.35 2.85-7.58Q3.13-7.93 3.51-8.16 3.9-8.4 4.38-8.4L4.38-8.4Q5-8.4 5.73-7.89 6.45-7.38 7.44-6.75 8.43-6.13 9.76-5.61 11.1-5.1 12.98-5.1L12.98-5.1Q15.85-5.1 17.43-6.46 19-7.83 19-10.38L19-10.38Q19-11.8 18.29-12.7 17.57-13.6 16.4-14.21 15.23-14.83 13.73-15.25 12.23-15.68 10.68-16.18 9.13-16.68 7.63-17.38 6.13-18.07 4.95-19.2 3.78-20.33 3.06-22.01 2.35-23.7 2.35-26.18L2.35-26.18Q2.35-28.15 3.14-30.03 3.93-31.9 5.44-33.35 6.95-34.8 9.15-35.68 11.35-36.55 14.18-36.55L14.18-36.55Q17.38-36.55 20.08-35.55 22.78-34.55 24.68-32.75L24.68-32.75ZM30.47-36.15L53.27-36.15 53.27-30.8 37.25-30.8 37.25-20.78 49.87-20.78 49.87-15.6 37.25-15.6 37.25-5.38 53.27-5.38 53.27 0 30.47 0 30.47-36.15ZM68.92-14.13L66.05-14.13 66.05 0 59.32 0 59.32-36.15 70.35-36.15Q74.05-36.15 76.68-35.39 79.32-34.63 81.01-33.25 82.7-31.88 83.48-29.96 84.27-28.05 84.27-25.75L84.27-25.75Q84.27-23.93 83.73-22.3 83.2-20.68 82.18-19.35 81.17-18.03 79.68-17.03 78.2-16.03 76.3-15.43L76.3-15.43Q77.57-14.7 78.5-13.35L78.5-13.35 87.55 0 81.5 0Q80.62 0 80.01-0.35 79.4-0.7 78.97-1.35L78.97-1.35 71.37-12.93Q70.95-13.58 70.43-13.85 69.92-14.13 68.92-14.13L68.92-14.13ZM66.05-30.95L66.05-18.95 70.25-18.95Q72.15-18.95 73.56-19.43 74.97-19.9 75.88-20.74 76.8-21.58 77.25-22.73 77.7-23.88 77.7-25.25L77.7-25.25Q77.7-28 75.88-29.48 74.07-30.95 70.35-30.95L70.35-30.95 66.05-30.95ZM91.84-36.15L114.64-36.15 114.64-30.8 98.62-30.8 98.62-20.78 111.24-20.78 111.24-15.6 98.62-15.6 98.62-5.38 114.64-5.38 114.64 0 91.84 0 91.84-36.15ZM123.99-36.15L123.99-36.15Q124.44-36.15 124.74-36.11 125.04-36.08 125.28-35.96 125.52-35.85 125.74-35.64 125.97-35.43 126.24-35.08L126.24-35.08 145.22-10.9Q145.12-11.78 145.08-12.61 145.04-13.45 145.04-14.18L145.04-14.18 145.04-36.15 150.97-36.15 150.97 0 147.49 0Q146.69 0 146.17-0.25 145.64-0.5 145.14-1.15L145.14-1.15 126.24-25.23Q126.32-24.43 126.35-23.64 126.39-22.85 126.39-22.2L126.39-22.2 126.39 0 120.47 0 120.47-36.15 123.99-36.15ZM165.84-36.15L165.84 0 159.09 0 159.09-36.15 165.84-36.15ZM173.96-36.15L196.76-36.15 196.76-30.8 180.74-30.8 180.74-20.1 194.26-20.1 194.26-14.73 180.74-14.73 180.74 0 173.96 0 173.96-36.15ZM231.26-36.15L218.11-14.05 218.11 0 211.38 0 211.38-14.05 198.21-36.15 204.13-36.15Q205.01-36.15 205.52-35.73 206.03-35.3 206.38-34.65L206.38-34.65 213.01-22.58Q213.58-21.5 214.01-20.54 214.43-19.58 214.78-18.65L214.78-18.65Q215.11-19.6 215.52-20.56 215.93-21.53 216.51-22.58L216.51-22.58 223.08-34.65Q223.36-35.2 223.91-35.68 224.46-36.15 225.31-36.15L225.31-36.15 231.26-36.15Z" opacity="1" transform="matrix(1,0,0,1,0,0)" fill="#1a1b4b" class="wordmark-text-0" data-fill-palette-color="primary" id="text-0"></path></svg></g></svg></g></svg></g></svg></g><g><svg viewBox="0 0 88.57474856913922 87.67092457080847" height="87.67092457080847" width="88.57474856913922"><g><svg xmlns="http://www.w3.org/2000/svg" xmlns:xlink="http://www.w3.org/1999/xlink" xmlns:sketch="http://www.bohemiancoding.com/sketch/ns" viewBox="2.7236533722829748e-9 7.665906798237643e-11 98.00000001468808 96.99999997765102" version="1.1" x="0" y="0" width="88.57474856913922" height="87.67092457080847" class="icon-icon-0" data-fill-palette-color="accent" id="icon-0"><g fill="#ff901c" fill-rule="evenodd" data-fill-palette-color="accent"><g fill="#ff901c" data-fill-palette-color="accent"><path d="M41.702 96.917C21.777 93.919 4.974 78.731 0.909 57.837-4.253 31.297 13.092 5.6 39.651 0.441 52.556-2.065 65.05 6.356 67.558 19.251 70.067 32.146 61.639 44.631 48.735 47.137 34.329 49.935 24.92 63.874 27.72 78.269 30.521 92.665 47.086 97.728 41.702 96.917L41.702 96.917 41.702 96.917ZM41.702 96.917" fill="#ff901c" data-fill-palette-color="accent"></path><path d="M97.091 39.163C102.253 65.703 84.908 91.4 58.349 96.559 45.444 99.065 32.95 90.644 30.442 77.749 27.933 64.854 36.361 52.369 49.265 49.863 63.671 47.065 73.08 33.126 70.28 18.731 67.479 4.335 50.914-0.728 56.298 0.083 76.223 3.081 93.026 18.269 97.091 39.163L97.091 39.163 97.091 39.163ZM97.091 39.163" fill="#ff901c" data-fill-palette-color="accent"></path><path d="M64.086 5C68.117 8.878 70.902 13.408 71.942 18.782 74.959 34.361 64.823 49.445 49.303 52.474 37.713 54.735 30.144 65.999 32.397 77.632 34.65 89.265 45.871 96.863 57.461 94.602 82.605 89.696 99.027 65.258 94.139 40.018 90.943 23.512 79.272 10.399 64.086 5L64.086 5 64.086 5ZM64.086 5" fill="#ff901c" data-fill-palette-color="accent"></path><path d="M43.5 31C47.642 31 51 27.642 51 23.5 51 19.358 47.642 16 43.5 16 39.358 16 36 19.358 36 23.5 36 27.642 39.358 31 43.5 31L43.5 31 43.5 31ZM43.5 31" fill="#ff901c" data-fill-palette-color="accent"></path><path d="M53.5 81C57.642 81 61 77.642 61 73.5 61 69.358 57.642 66 53.5 66 49.358 66 46 69.358 46 73.5 46 77.642 49.358 81 53.5 81L53.5 81 53.5 81ZM53.5 81" fill="#ff901c" data-fill-palette-color="accent"></path></g></g></svg></g></svg></g></svg></g><defs></defs></svg><rect width="395.52" height="66.713634955383" fill="none" stroke="none" visibility="hidden"></rect></g></svg></g></svg>